<svg id="visual" viewBox="0 0 900 600" width="900" height="600" xmlns="http://www.w3.org/2000/svg" xmlns:xlink="http://www.w3.org/1999/xlink" version="1.1"><path d="M0 401L21.5 407.5C43 414 86 427 128.8 424C171.7 421 214.3 402 257.2 412.7C300 423.3 343 463.7 385.8 481.2C428.7 498.7 471.3 493.3 514.2 473.5C557 453.7 600 419.3 642.8 421C685.7 422.7 728.3 460.3 771.2 463.8C814 467.3 857 436.7 878.5 421.3L900 406L900 601L878.5 601C857 601 814 601 771.2 601C728.3 601 685.7 601 642.8 601C600 601 557 601 514.2 601C471.3 601 428.7 601 385.8 601C343 601 300 601 257.2 601C214.3 601 171.7 601 128.8 601C86 601 43 601 21.5 601L0 601Z" fill="#f4f6f8" stroke-linecap="round" stroke-linejoin="miter"></path></svg>